# xmcd
#
# Track frame offsets:
#	150
#	21792
#	42017
#	63615
#	83725
#
# Disc length: 1211 seconds
#
# Revision: 1
# Processed by: cddbd v1.5.1PL0 Copyright (c) Steve Scherf et al.
# Submitted via: CDex 1.50Beta5
#
DISCID=3504b905
DTITLE=生沢佑一 - Warriors
DYEAR=2002
DGENRE=Anime
TTITLE0=Warriors
TTITLE1=あふれる感情がとまらない
TTITLE2=WARRIORS(Backing Track)
TTITLE3=あふれる感情がとまらない(Backing Track)
TTITLE4=Warriors(Tv Track)
EXTD=
EXTT0=
EXTT1=
EXTT2=
EXTT3=
EXTT4=
PLAYORDER=
